<svg xmlns="http://www.w3.org/2000/svg" viewBox="1200 2000 7600 6000">
  <g fill="#000" transform="scale(1,-1) translate(0,-10500)">
    <path d="M5112 8188 c-6 -40 -19 -129 -28 -199 l-17 -125 -102 -12 c-189 -23-356 -85-520 -194-95 -63-254-217-317-308-110-156-187-351-215-540-8 -58-16-106-18-108-5-5-316-52-347-52-68 0-11-13 168-39l188 -26 13 -99 c51 -411 300 -768 663 -951 133 -67 329 -125 422 -125 61 0 76 -9 82 -48 3 -21 13 -91 23 -156 9 -66 19 -113 21 -106 3 8 14 80 26 160l21 145 77 8 c173 17 357 81 515 179 93 58 250 200 318 288 138 180 220 382 246 604 12 101 14 105 38 110 14 3 98 15 186 26 87 12 161 23 164 25 2 3 0 5-5 5-5 0-90 11-188 25-99 14-181 25-183 25-1 0-3 17-3 39 0 21-7 78-15 127-61 345-265 637-576 824-145 88-298 140-475 162l-92 11-26 196c-15 107-29 197-30 199-2 1-8-30-14-70z m-64 -440 c-3 -33-3 -33-73 -41-398 -43-754 -341-878 -734-15 -45-32 -120-39 -167-11 -82-13 -86-41 -92-15-3-30-4-32-2-9 8 17 170 41 252 84 298 294 555 569 695 130 67 305 116 428 120 26 1 28-2 25-31z m354 2 c385 -83 711 -388 822 -772 16-56 50-258 44-263-2-1-17 0-34 2-31 5-32 7-38 66-22 196-101 385-226 541-172 213-437 358-702 383l-66 6-4 34-4 35 60-7 c34-4 100-15 148-25z m-279 -789 l6 -275-76 76-75 75 11 89 c13 97 95 706 108 794 8 56 13-103 26-759z m-83 697 c0-7-20-161-45-343-25-181-45-335-45-342 0-7-108 67-241 163-133 96-243 174-244 172-3-3 127-195 268-395l57-81-27-6 c-50-10-635-96-656-96-18 0-19 5-12 56 19 158 128 403 234 531 114 136 275 245 445 302 138 45 266 64 266 39z m390 -25 c309-88 554-314 667-615 29-75 69-267 61-288-3-8-678 102-678 111 0 3 70 108 155 233 85 126 155 230 155 233 0 6-136-90-317-224-84-62-153-111-153-109 0 4-98 623-105 665l-6 33 68-7 c37-4 106-18 153-32z m331-892 c233-38 440-71 459-74 19-2-109-5-285-5-176-1-419-5-540-8l-220-6 80 81c44 44 80 81 81 81 1 0 192-31 425-69z m-755 -170 c-71-71-82-79-110-75-17 3-130 20-251 39-199 31-441 65-600 85-39 5 47 8 240 10 165 1 388 6 495 10 107 3 220 7 250 8l55 2-79-79z m237-409 c-48-327-82-527-94-557-4-12-8 32-8 111-1 72-4 301-7 510l-6 379 79-78 79-77-43-288z m-1189 345 c3-34 18-105 32-157 51-189 137-335 278-476 180-180 384-279 657-319 32-5 37-10 41-37l5-31-67 7c-162 15-369 90-511 187-89 60-238 207-297 292-119 172-202 402-202 557 0 46 1 46 29 42 27-4 29-7 35-65z m2207 12 c-4-85-36-219-76-315-164-396-520-670-924-710l-74-7 7 29c4 16 9 30 10 31 1 2 43 10 92 18 240 42 403 125 577 294 180 175 294 405 323 653 5 48 10 58 28 61 37 7 40 2 37-54z m-1631-29 c91-13 167-24 169-26 2-2-10-20-26-41-38-48-313-442-313-448 0-2 21 11 48 30 217 158 428 302 433 297 3-4 18-88 33-187 15-99 39-247 52-330 34-209 37-193-38-183-175 23-377 111-517 224-204 164-347 425-377 683l-6 58 188-27c104-16 263-38 354-50z m1525 23c-50-376-279-688-607-830-88-39-253-83-308-83l-37 0 14 83c7 45 31 206 54 357 23 151 43 277 45 279 2 3 324-235 463-343 20-15 22-17-161 248-87 126-156 232-153 235 6 5 626 99 668 100 28 1 28 1 22-46z"/>
    <path d="M7645 4971 c-142 -35-295 -126-386-229-59-67-117-169-147-259-24-71-26-92-26-238 0-147 2-167 27-240 70-212 240-378 462-452 73-24 95-27 235-27 136-1 164 2 230 22 243 76 415 241 497 477 25 73 27 92 27 230 1 170-12 232-71 353-39 80-145 202-220 253-72 50-158 88-245 109-107 26-283 26-383 1z m264-72 c175-40 323-199 381-411 41-151 43-402 4-538-39-136-122-238-242-297-75-38-77-38-197-38-120 0-122 0-198 38-90 45-169 117-214 197-76 133-122 347-108 505 25 301 130 471 332 535 65 21 174 25 242 9z"/>
    <path d="M2300 4933 c-6-21-14-102-17-180-6-139-5-143 14-143 27 0 39 17 47 65 12 70 52 139 94 162 47 27 141 43 250 43 l83 0-3-587 c-3-421-7-596-15-615-17-38-54-59-115-67-48-5-53-8-53-31 l0-25 300 0 300 0 0 25 c0 22-5 26-49 32-74 10-103 26-123 66-17 34-18 80-21 620 l-3 582 93 0 c206-1 277-46 312-197 11-51 15-58 37-58 l24 0-2 164 c-1 90-6 167-10 172-4 4-35 3-68-2-70-12-1009-7-1042 5-19 7-23 3-33-31z"/>
    <path d="M4558 4964 c-3-3-215-7-469-9 l-464-4 0-22 c0-19 9-24 54-35 71-16 98-44 111-117 17-89 9-1075-8-1105-16-28-85-61-128-62-36 0-57-20-48-43 5-14 63-16 524-16 l518-1 25 83 c14 45 34 120 43 166 17 81 17 84-1 97-32 23-41 17-70-51-35-84-100-156-164-184-97-42-334-51-403-15-57 30-62 54-66 338 l-4 259 152-6 c202-9 237-27 255-132 12-69 15-76 38-73 20 3 20 8 21 238 1 223 0 235-18 235-14 0-22-12-31-47-16-63-56-114-102-129-22-7-94-13-173-13 l-135-1-3 90 c-2 50 0 177 3 283 l7 192 72 0 c112 0 284-19 325-36 66-28 119-94 136-171 5-26 12-33 30-33 13 0 26 4 29 8 10 16-12 292-24 307-13 16-23 19-32 9z"/>
    <path d="M1553 4943 c-9-24 6-43 34-43 50-1 112-36 128-73 18-43 32-937 17-1067-9-76-14-87-41-112-21-18-47-29-81-34-52-7-76-24-67-48 5-11 54-14 294-12 l288 1 0 24 c0 22-6 26-57 36-67 13-94 35-108 84-5 20-10 265-11 566-1 447 1 535 13 565 20 48 39 61 100 69 48 5 53 8 53 31 l0 24-279 1 c-214 0-280-3-283-12z"/>
    <path d="M4893 4943 c-10-26 7-40 54-47 27-3 59-13 71-22 52-36 52-31 52-617 0-362-4-554-11-575-14-41-46-60-113-68-54-7-71-20-60-47 4-11 63-14 300-14 l295 0-3 26 c-3 24-8 27-63 33-70 9-102 35-115 94-5 21-10 135-10 252 l0 212 48 0 c26 0 57 3 70 6 34 10 78-45 217-266 66-105 139-213 163-240 79-91 218-139 357-123 65 7 70 10 70 32 0 20-7 26-46 36-108 27-217 157-392 465-92 162-91 150-3 194 90 44 156 112 186 194 29 78 26 205-8 274-44 90-136 159-258 195-51 15-109 17-428 17-286 1-370-2-373-11z m704-93 c109-50 149-137 141-306-3-75-9-98-33-143-35-63-87-105-159-126-61-19-193-30-230-21 l-26 6 2 308 3 307 65 6 c101 8 169 0 237-31z"/>
    <path d="M6363 4943 c-10-25 6-40 49-47 59-10 85-29 99-73 15-50 25-933 11-1056-13-117-30-136-144-161-21-5-28-12-28-30 l0-24 288 2 287 1 0 25 c0 22-6 25-64 37-36 7-72 20-82 29-35 32-39 90-39 629 0 587 0 583 64 610 20 8 48 15 64 15 33 0 55 20 47 42-8 19-545 20-552 1z"/>
  </g>
</svg> 